<svg version="1.1" id="Layer_1" xmlns="http://www.w3.org/2000/svg" xmlns:xlink="http://www.w3.org/1999/xlink" x="0px" y="0px"
	 viewBox="0 0 97.5 98.4" enable-background="new 0 0 97.5 98.4" xml:space="preserve">
<path fill="#921A4C" d="M82.7,98.4c-8.1,0-20.2-1.4-33.9-7.4c-24.5,10.7-43.5,6.7-44.7,6.4c-2.7-0.6-4.4-0.3-3.8-3
	c0.6-2.7,3.3-7.4,6-6.8l0,0c0.8,0.2,13.3,2.7,30.6-2.8c-7.2-4.4-14.7-10.1-22.2-17.6C-6.4,46.2-2.1,22.7,10.8,9.8
	c11.4-11.4,27.4-13,38-4c10.6-9,26.6-7.4,38,4c12.9,12.9,17.2,36.4-3.9,57.5c-7.5,7.5-15,13.2-22.2,17.6c17.3,5.5,29.8,3,30.6,2.8
	c2.7-0.6,5.4,4.1,5.9,6.8s-1.1,2.3-3.8,3C93,97.6,89,98.4,82.7,98.4z M32.9,10c-5.4,0-10.9,2.8-15.1,6.9c-9.8,9.8-12.4,27,3.9,43.3
	c9.3,9.3,18.5,15.6,27,19.8c8.5-4.3,17.7-10.6,27-19.8c11.7-11.7,17.5-29.7,3.9-43.3c-6.3-6.3-16-9.5-23.3-4.3
	c4.8,4.5,10.2,10.9,10.2,19.6c0,7.4-5.5,17.8-17.8,17.8c-4.7,0-8.9-1.8-12.3-5.1c-3.4-3.5-5.6-8.3-5.6-12.7
	c0-8.6,5.5-15.1,10.3-19.6C38.7,10.8,35.8,10,32.9,10z M48.8,19.2C45,22.7,41,27,41,32.2c0,1.5,0.9,3.9,2.6,5.7
	c1.4,1.4,3.2,2.2,5.2,2.2c6.5,0,7.8-6.2,7.8-7.8C56.6,27,52.6,22.6,48.8,19.2z"/>
</svg>
